# xmcd
#
# Track frame offsets:
#	180
#	14860
#	33697
#	58851
#	70451
#	100887
#	113352
#	135185
#	150622
#	168371
#
# Disc length: 2559 seconds
#
# Revision: 0
# Processed by: cddbd v1.5.2PL0 Copyright (c) Steve Scherf et al.
# Submitted via: audiograbber 1.83.01
#
DISCID=8309fd0a
DTITLE=The Mt. Gilead Quartet - All The Glory Belongs To Jesus
DYEAR=1997
DGENRE=Southern Gospel
TTITLE0=I Got A Love
TTITLE1=Champion Of Love
TTITLE2=I Know Who Holds Tomorrow
TTITLE3=Countin' Blessings
TTITLE4=There Is A River
TTITLE5=Ride That Glory Train
TTITLE6=Farther Along
TTITLE7=When Jesus Says It's Enough
TTITLE8=Wedding Music
TTITLE9=All The Glory Belongs To Jesus
EXTD=
EXTT0=
EXTT1=
EXTT2=
EXTT3=
EXTT4=
EXTT5=
EXTT6=
EXTT7=
EXTT8=
EXTT9=
PLAYORDER=
